<mxfile host="Electron" agent="Mozilla/5.0 (Windows NT 10.0; Win64; x64) AppleWebKit/537.36 (KHTML, like Gecko) draw.io/28.0.6 Chrome/138.0.7204.100 Electron/37.2.3 Safari/537.36" version="28.0.6">
  <diagram id="dHzwJemqmbaH25j9eEfk" name="Page-1">
    <mxGraphModel dx="1426" dy="111" grid="1" gridSize="10" guides="1" tooltips="1" connect="1" arrows="1" fold="1" page="1" pageScale="1" pageWidth="1100" pageHeight="850" math="0" shadow="0">
      <root>
        <mxCell id="0" />
        <mxCell id="1" parent="0" />
        <mxCell id="8fs1fNLYahmGX1iR9yGl-5" value="" style="rounded=0;whiteSpace=wrap;html=1;fillColor=#dae8fc;strokeColor=#6c8ebf;fontStyle=0" parent="1" vertex="1">
          <mxGeometry x="340" y="1114" width="440" height="360" as="geometry" />
        </mxCell>
        <mxCell id="8fs1fNLYahmGX1iR9yGl-14" value="" style="rounded=0;whiteSpace=wrap;html=1;fillColor=#e1d5e7;strokeColor=#9673a6;fontStyle=0" parent="1" vertex="1">
          <mxGeometry x="800" y="1114.9" width="140" height="359.1" as="geometry" />
        </mxCell>
        <mxCell id="8fs1fNLYahmGX1iR9yGl-3" value="" style="rounded=0;whiteSpace=wrap;html=1;fillColor=#d5e8d4;strokeColor=#82b366;fontStyle=0" parent="1" vertex="1">
          <mxGeometry x="180" y="1114" width="140" height="360" as="geometry" />
        </mxCell>
        <mxCell id="8fs1fNLYahmGX1iR9yGl-4" value="&lt;font style=&quot;font-size: 11px&quot;&gt;&lt;br&gt;Informfully&lt;br&gt;Front End&lt;/font&gt;" style="text;html=1;strokeColor=none;fillColor=none;align=center;verticalAlign=middle;whiteSpace=wrap;rounded=0;fontStyle=1" parent="1" vertex="1">
          <mxGeometry x="180" y="1075" width="60" height="21" as="geometry" />
        </mxCell>
        <mxCell id="8fs1fNLYahmGX1iR9yGl-6" value="&lt;font style=&quot;font-size: 11px&quot;&gt;&lt;br&gt;Informfully&lt;br&gt;Back End&lt;/font&gt;&lt;div&gt;&lt;/div&gt;" style="text;html=1;strokeColor=none;fillColor=none;align=center;verticalAlign=middle;whiteSpace=wrap;rounded=0;fontStyle=1" parent="1" vertex="1">
          <mxGeometry x="340" y="1075" width="60" height="20" as="geometry" />
        </mxCell>
        <mxCell id="rVq0KYXmAg18AdFdW1Ko-9" style="edgeStyle=orthogonalEdgeStyle;rounded=0;orthogonalLoop=1;jettySize=auto;html=1;exitX=1;exitY=0.25;exitDx=0;exitDy=0;entryX=0;entryY=0.5;entryDx=0;entryDy=0;startArrow=classic;startFill=1;strokeWidth=1;fontStyle=0" parent="1" source="8fs1fNLYahmGX1iR9yGl-7" target="RlrXOeXsrl_2WmTdLoJ5-54" edge="1">
          <mxGeometry relative="1" as="geometry">
            <Array as="points">
              <mxPoint x="380" y="1374" />
              <mxPoint x="380" y="1319" />
            </Array>
          </mxGeometry>
        </mxCell>
        <mxCell id="8fs1fNLYahmGX1iR9yGl-7" value="App" style="whiteSpace=wrap;html=1;aspect=fixed;fillColor=#fff2cc;strokeColor=#d6b656;strokeWidth=2;fontStyle=0" parent="1" vertex="1">
          <mxGeometry x="210" y="1354" width="80" height="80" as="geometry" />
        </mxCell>
        <mxCell id="rVq0KYXmAg18AdFdW1Ko-8" value="HTTPS" style="edgeStyle=orthogonalEdgeStyle;rounded=0;orthogonalLoop=1;jettySize=auto;html=1;exitX=1;exitY=0.5;exitDx=0;exitDy=0;entryX=0;entryY=0.5;entryDx=0;entryDy=0;startArrow=classic;startFill=1;fontStyle=0;labelBackgroundColor=none;strokeWidth=1;" parent="1" source="8fs1fNLYahmGX1iR9yGl-8" target="RlrXOeXsrl_2WmTdLoJ5-54" edge="1">
          <mxGeometry x="0.6109" y="-10" relative="1" as="geometry">
            <Array as="points">
              <mxPoint x="380" y="1194" />
              <mxPoint x="380" y="1319" />
            </Array>
            <mxPoint x="-1" as="offset" />
          </mxGeometry>
        </mxCell>
        <mxCell id="8fs1fNLYahmGX1iR9yGl-8" value="Website" style="whiteSpace=wrap;html=1;aspect=fixed;fillColor=#fff2cc;strokeColor=#d6b656;strokeWidth=2;fontStyle=0" parent="1" vertex="1">
          <mxGeometry x="210" y="1154" width="80" height="80" as="geometry" />
        </mxCell>
        <mxCell id="VuYohTmQw7R1LbdgS85e-53" value="&lt;span&gt;HTTPS/JSON&lt;/span&gt;" style="edgeStyle=orthogonalEdgeStyle;rounded=0;orthogonalLoop=1;jettySize=auto;html=1;entryX=1;entryY=0.75;entryDx=0;entryDy=0;startArrow=none;startFill=0;strokeWidth=1;labelBackgroundColor=none;fontStyle=0" parent="1" source="8fs1fNLYahmGX1iR9yGl-10" target="8fs1fNLYahmGX1iR9yGl-7" edge="1">
          <mxGeometry x="-0.4074" y="10" relative="1" as="geometry">
            <mxPoint as="offset" />
            <mxPoint x="440.0000000000002" y="952" as="sourcePoint" />
            <mxPoint x="440.0000000000002" y="741" as="targetPoint" />
          </mxGeometry>
        </mxCell>
        <mxCell id="8fs1fNLYahmGX1iR9yGl-10" value="Rec.&lt;br&gt;Lists" style="shape=cylinder3;whiteSpace=wrap;html=1;boundedLbl=1;backgroundOutline=1;size=15;fillColor=#ffe6cc;strokeColor=#d79b00;fontStyle=0" parent="1" vertex="1">
          <mxGeometry x="530" y="1374" width="60" height="80" as="geometry" />
        </mxCell>
        <mxCell id="8fs1fNLYahmGX1iR9yGl-15" value="&lt;font style=&quot;font-size: 11px&quot;&gt;External&lt;br&gt;Services&lt;/font&gt;" style="text;html=1;strokeColor=none;fillColor=none;align=center;verticalAlign=middle;whiteSpace=wrap;rounded=0;fontStyle=1" parent="1" vertex="1">
          <mxGeometry x="800" y="1084" width="60" height="20" as="geometry" />
        </mxCell>
        <mxCell id="8fs1fNLYahmGX1iR9yGl-21" value="&lt;font style=&quot;font-size: 11px&quot;&gt;Content&lt;br&gt;Provider&lt;/font&gt;" style="ellipse;shape=cloud;whiteSpace=wrap;html=1;fillColor=#f5f5f5;strokeColor=#666666;fontColor=#333333;fontStyle=0" parent="1" vertex="1">
          <mxGeometry x="810" y="1256" width="120" height="80" as="geometry" />
        </mxCell>
        <mxCell id="rVq0KYXmAg18AdFdW1Ko-22" style="edgeStyle=orthogonalEdgeStyle;rounded=0;orthogonalLoop=1;jettySize=auto;html=1;exitX=0.5;exitY=1;exitDx=0;exitDy=0;exitPerimeter=0;strokeWidth=1;startArrow=classic;startFill=1;fontStyle=0" parent="1" source="VuYohTmQw7R1LbdgS85e-39" target="RlrXOeXsrl_2WmTdLoJ5-54" edge="1">
          <mxGeometry relative="1" as="geometry" />
        </mxCell>
        <mxCell id="VuYohTmQw7R1LbdgS85e-39" value="&lt;font style=&quot;font-size: 11px&quot;&gt;User-Item&lt;br&gt;Interaction&lt;/font&gt;" style="shape=cylinder3;whiteSpace=wrap;html=1;boundedLbl=1;backgroundOutline=1;size=15;fillColor=#ffe6cc;strokeColor=#d79b00;fontStyle=0" parent="1" vertex="1">
          <mxGeometry x="491" y="1144" width="60" height="70" as="geometry" />
        </mxCell>
        <mxCell id="RlrXOeXsrl_2WmTdLoJ5-109" style="edgeStyle=orthogonalEdgeStyle;rounded=0;orthogonalLoop=1;jettySize=auto;html=1;entryX=1;entryY=0.5;entryDx=0;entryDy=0;entryPerimeter=0;startArrow=none;startFill=0;exitX=0;exitY=0.75;exitDx=0;exitDy=0;fontStyle=0;strokeWidth=1;" parent="1" source="3Y32yFuNBzq6Wi7v2W6P-1" target="8fs1fNLYahmGX1iR9yGl-10" edge="1">
          <mxGeometry relative="1" as="geometry">
            <Array as="points">
              <mxPoint x="850" y="1414" />
              <mxPoint x="850" y="1414" />
            </Array>
          </mxGeometry>
        </mxCell>
        <mxCell id="RlrXOeXsrl_2WmTdLoJ5-110" value="HTTPS/JSON" style="edgeLabel;html=1;align=center;verticalAlign=middle;resizable=0;points=[];fontStyle=0;labelBackgroundColor=none;" parent="RlrXOeXsrl_2WmTdLoJ5-109" vertex="1" connectable="0">
          <mxGeometry x="-0.3324" y="3" relative="1" as="geometry">
            <mxPoint x="-93" y="7" as="offset" />
          </mxGeometry>
        </mxCell>
        <mxCell id="3Y32yFuNBzq6Wi7v2W6P-1" value="&lt;font style=&quot;font-size: 11px&quot;&gt;Recommender&lt;br&gt;System&lt;/font&gt;" style="whiteSpace=wrap;html=1;aspect=fixed;fillColor=#fff2cc;strokeColor=#d6b656;strokeWidth=2;fontStyle=0" parent="1" vertex="1">
          <mxGeometry x="830" y="1354" width="80" height="80" as="geometry" />
        </mxCell>
        <mxCell id="RlrXOeXsrl_2WmTdLoJ5-6" value="" style="group;strokeWidth=2;fontStyle=0" parent="1" vertex="1" connectable="0">
          <mxGeometry x="830" y="1139" width="80" height="80" as="geometry" />
        </mxCell>
        <mxCell id="l8Eap2Fb8E5uMKO9X7CK-8" value="" style="rounded=0;whiteSpace=wrap;html=1;fillColor=#fff2cc;strokeColor=#d6b656;strokeWidth=2;fontStyle=0" parent="RlrXOeXsrl_2WmTdLoJ5-6" vertex="1">
          <mxGeometry width="80" height="80" as="geometry" />
        </mxCell>
        <mxCell id="8fs1fNLYahmGX1iR9yGl-17" value="&lt;font style=&quot;font-size: 11px&quot;&gt;Content&lt;br&gt;Scraper&lt;/font&gt;" style="whiteSpace=wrap;html=1;aspect=fixed;fillColor=#fff2cc;strokeColor=none;fontStyle=0" parent="RlrXOeXsrl_2WmTdLoJ5-6" vertex="1">
          <mxGeometry x="5" y="5" width="70" height="70" as="geometry" />
        </mxCell>
        <mxCell id="RlrXOeXsrl_2WmTdLoJ5-107" value="" style="group;fontStyle=0" parent="1" vertex="1" connectable="0">
          <mxGeometry x="525" y="1284" width="70" height="70" as="geometry" />
        </mxCell>
        <mxCell id="RlrXOeXsrl_2WmTdLoJ5-54" value="" style="rounded=0;whiteSpace=wrap;html=1;fillColor=#fff2cc;strokeColor=#d6b656;fontStyle=0" parent="RlrXOeXsrl_2WmTdLoJ5-107" vertex="1">
          <mxGeometry width="70" height="70" as="geometry" />
        </mxCell>
        <mxCell id="RlrXOeXsrl_2WmTdLoJ5-55" value="&lt;font style=&quot;font-size: 11px&quot;&gt;Query Interface&lt;/font&gt;" style="whiteSpace=wrap;html=1;aspect=fixed;fillColor=#fff2cc;strokeColor=none;fontStyle=0" parent="RlrXOeXsrl_2WmTdLoJ5-107" vertex="1">
          <mxGeometry x="8.204999999999984" y="8.204999999999927" width="53.59375" height="53.59375" as="geometry" />
        </mxCell>
        <mxCell id="rVq0KYXmAg18AdFdW1Ko-24" style="edgeStyle=orthogonalEdgeStyle;rounded=0;orthogonalLoop=1;jettySize=auto;html=1;exitX=0.5;exitY=1;exitDx=0;exitDy=0;exitPerimeter=0;strokeWidth=1;startArrow=classic;startFill=1;fontStyle=0" parent="1" source="VuYohTmQw7R1LbdgS85e-35" edge="1">
          <mxGeometry relative="1" as="geometry">
            <mxPoint x="560" y="1284" as="targetPoint" />
          </mxGeometry>
        </mxCell>
        <mxCell id="VuYohTmQw7R1LbdgS85e-35" value="&lt;font style=&quot;font-size: 11px&quot;&gt;Item&lt;br&gt;Data&lt;/font&gt;" style="shape=cylinder3;whiteSpace=wrap;html=1;boundedLbl=1;backgroundOutline=1;size=15;fillColor=#ffe6cc;strokeColor=#d79b00;fontStyle=0" parent="1" vertex="1">
          <mxGeometry x="651" y="1144" width="60" height="70" as="geometry" />
        </mxCell>
        <mxCell id="rVq0KYXmAg18AdFdW1Ko-23" style="edgeStyle=orthogonalEdgeStyle;rounded=0;orthogonalLoop=1;jettySize=auto;html=1;exitX=0.5;exitY=1;exitDx=0;exitDy=0;exitPerimeter=0;strokeWidth=1;startArrow=classic;startFill=1;fontStyle=0" parent="1" source="RlrXOeXsrl_2WmTdLoJ5-88" edge="1">
          <mxGeometry relative="1" as="geometry">
            <mxPoint x="560" y="1284" as="targetPoint" />
          </mxGeometry>
        </mxCell>
        <mxCell id="RlrXOeXsrl_2WmTdLoJ5-88" value="&lt;font style=&quot;font-size: 11px&quot;&gt;User&lt;br&gt;Data&lt;/font&gt;" style="shape=cylinder3;whiteSpace=wrap;html=1;boundedLbl=1;backgroundOutline=1;size=15;fillColor=#ffe6cc;strokeColor=#d79b00;fontStyle=0" parent="1" vertex="1">
          <mxGeometry x="571" y="1144" width="60" height="70" as="geometry" />
        </mxCell>
        <mxCell id="RlrXOeXsrl_2WmTdLoJ5-124" style="edgeStyle=orthogonalEdgeStyle;rounded=0;orthogonalLoop=1;jettySize=auto;html=1;exitX=0;exitY=0.5;exitDx=0;exitDy=0;entryX=1;entryY=0.5;entryDx=0;entryDy=0;entryPerimeter=0;startArrow=classic;startFill=1;endArrow=classic;endFill=1;strokeWidth=1;fontStyle=0" parent="1" source="l8Eap2Fb8E5uMKO9X7CK-8" target="VuYohTmQw7R1LbdgS85e-35" edge="1">
          <mxGeometry relative="1" as="geometry" />
        </mxCell>
        <mxCell id="rVq0KYXmAg18AdFdW1Ko-28" value="HTTPS/&lt;br&gt;JSON" style="edgeLabel;html=1;align=center;verticalAlign=middle;resizable=0;points=[];fontStyle=0;labelBackgroundColor=none;" parent="RlrXOeXsrl_2WmTdLoJ5-124" vertex="1" connectable="0">
          <mxGeometry x="-0.1774" y="-4" relative="1" as="geometry">
            <mxPoint x="-37" y="23" as="offset" />
          </mxGeometry>
        </mxCell>
        <mxCell id="rVq0KYXmAg18AdFdW1Ko-21" style="edgeStyle=orthogonalEdgeStyle;rounded=0;orthogonalLoop=1;jettySize=auto;html=1;exitX=0.5;exitY=1;exitDx=0;exitDy=0;exitPerimeter=0;entryX=0.5;entryY=0;entryDx=0;entryDy=0;strokeWidth=1;startArrow=classic;startFill=1;fontStyle=0" parent="1" source="KITK377uDEQygHuFV2bt-1" target="RlrXOeXsrl_2WmTdLoJ5-54" edge="1">
          <mxGeometry relative="1" as="geometry" />
        </mxCell>
        <mxCell id="KITK377uDEQygHuFV2bt-1" value="&lt;span style=&quot;font-size: 11px&quot;&gt;Config.&lt;br&gt;Data&lt;br&gt;&lt;/span&gt;" style="shape=cylinder3;whiteSpace=wrap;html=1;boundedLbl=1;backgroundOutline=1;size=15;fillColor=#ffe6cc;strokeColor=#d79b00;fontStyle=0" parent="1" vertex="1">
          <mxGeometry x="411" y="1144" width="60" height="70" as="geometry" />
        </mxCell>
        <mxCell id="rVq0KYXmAg18AdFdW1Ko-11" style="edgeStyle=orthogonalEdgeStyle;rounded=0;orthogonalLoop=1;jettySize=auto;html=1;exitX=0.5;exitY=1;exitDx=0;exitDy=0;strokeWidth=1;startArrow=classic;startFill=1;fontStyle=0" parent="1" source="l8Eap2Fb8E5uMKO9X7CK-8" target="8fs1fNLYahmGX1iR9yGl-21" edge="1">
          <mxGeometry relative="1" as="geometry" />
        </mxCell>
        <mxCell id="rVq0KYXmAg18AdFdW1Ko-12" value="HTTPS/API" style="edgeLabel;html=1;align=center;verticalAlign=middle;resizable=0;points=[];fontStyle=0;labelBackgroundColor=none;" parent="rVq0KYXmAg18AdFdW1Ko-11" vertex="1" connectable="0">
          <mxGeometry x="0.6" y="2" relative="1" as="geometry">
            <mxPoint x="32" y="-9" as="offset" />
          </mxGeometry>
        </mxCell>
        <mxCell id="rVq0KYXmAg18AdFdW1Ko-25" style="edgeStyle=orthogonalEdgeStyle;rounded=0;orthogonalLoop=1;jettySize=auto;html=1;exitX=1;exitY=0.5;exitDx=0;exitDy=0;entryX=0;entryY=0.25;entryDx=0;entryDy=0;strokeWidth=1;startArrow=classic;startFill=1;fontStyle=0" parent="1" source="RlrXOeXsrl_2WmTdLoJ5-54" target="3Y32yFuNBzq6Wi7v2W6P-1" edge="1">
          <mxGeometry relative="1" as="geometry" />
        </mxCell>
        <mxCell id="rVq0KYXmAg18AdFdW1Ko-26" value="&lt;span&gt;HTTPS&lt;/span&gt;" style="edgeLabel;html=1;align=center;verticalAlign=middle;resizable=0;points=[];labelBackgroundColor=none;fontStyle=0" parent="rVq0KYXmAg18AdFdW1Ko-25" vertex="1" connectable="0">
          <mxGeometry x="-0.3954" y="1" relative="1" as="geometry">
            <mxPoint x="-13" y="10" as="offset" />
          </mxGeometry>
        </mxCell>
      </root>
    </mxGraphModel>
  </diagram>
</mxfile>
